<svg xmlns="http://www.w3.org/2000/svg" xmlns:xlink="http://www.w3.org/1999/xlink" version="1.1" x="0px" y="0px" viewBox="0 0 10 12.5" enable-background="new 0 0 10 10" xml:space="preserve"><path d="M8.879,2.636c-0.024-0.029-0.062-0.047-0.1-0.047H2.8L2.654,1.657c-0.01-0.063-0.065-0.11-0.129-0.11H1.223  c-0.072,0-0.131,0.059-0.131,0.13c0,0.072,0.059,0.131,0.131,0.131h1.191l0.635,4.064c0.073,0.366,0.372,0.672,0.746,0.809  C3.437,6.804,3.177,7.141,3.177,7.54c0,0.503,0.409,0.912,0.912,0.912S5.001,8.043,5.001,7.54c0-0.333-0.183-0.623-0.45-0.781h2.203  c-0.269,0.158-0.45,0.448-0.45,0.781c0,0.503,0.409,0.912,0.912,0.912S8.127,8.043,8.127,7.54c0-0.333-0.182-0.623-0.449-0.781h0.58  c0.072,0,0.13-0.059,0.13-0.131s-0.058-0.13-0.13-0.13H4.219c-0.43,0-0.84-0.304-0.913-0.672L3.247,5.455h4.489  c0.425,0,0.74-0.248,0.786-0.612l0.385-2.1C8.914,2.705,8.904,2.666,8.879,2.636z M7.867,7.54c0,0.359-0.293,0.651-0.651,0.651  c-0.359,0-0.651-0.292-0.651-0.651s0.292-0.651,0.651-0.651C7.574,6.889,7.867,7.181,7.867,7.54z M4.74,7.54  c0,0.359-0.292,0.651-0.651,0.651S3.438,7.899,3.438,7.54s0.292-0.651,0.651-0.651S4.74,7.181,4.74,7.54z M8.265,4.804  C8.229,5.093,7.958,5.195,7.736,5.195H3.207L2.84,2.85h5.783L8.265,4.804z"/><text x="0" y="25" fill="#000000" font-size="5px" font-weight="bold" font-family="'Helvetica Neue', Helvetica, Arial-Unicode, Arial, Sans-serif">Created by verry obito</text><text x="0" y="30" fill="#000000" font-size="5px" font-weight="bold" font-family="'Helvetica Neue', Helvetica, Arial-Unicode, Arial, Sans-serif">from the Noun Project</text></svg>